<?xml version="1.0" encoding="UTF-8"?>
<svg id="Layer_2" data-name="Layer 2" xmlns="http://www.w3.org/2000/svg" xmlns:xlink="http://www.w3.org/1999/xlink" viewBox="0 0 898.77 150">
  <defs>
    <style>
      .cls-1 {
        fill: #fff;
      }

      .cls-2 {
        fill: #2eeddb;
      }

      .cls-2, .cls-3 {
        fill-rule: evenodd;
      }

      .cls-3 {
        fill: url(#linear-gradient);
      }

      .cls-4 {
        fill: url(#New_Gradient_Swatch_1);
      }

      .cls-5 {
        fill: #205053;
      }
    </style>
    <linearGradient id="New_Gradient_Swatch_1" data-name="New Gradient Swatch 1" x1="74.96" y1="161" x2="75.04" y2="11" gradientTransform="translate(0 161) scale(1 -1)" gradientUnits="userSpaceOnUse">
      <stop offset="0" stop-color="#2ec3b5"/>
      <stop offset="1" stop-color="#18675c"/>
    </linearGradient>
    <linearGradient id="linear-gradient" x1="612.28" y1="107.2" x2="612.63" y2="55.61" gradientUnits="userSpaceOnUse">
      <stop offset="0" stop-color="#18675c"/>
      <stop offset="1" stop-color="#2eeddb"/>
    </linearGradient>
  </defs>
  <g id="Layer_1-2" data-name="Layer 1">
    <g>
      <g>
        <rect class="cls-5" x="531.64" y="81.46" width="37.57" height="10.45"/>
        <rect class="cls-5" x="782.26" y="81.46" width="37.57" height="10.45"/>
        <polygon class="cls-5" points="496.46 38.19 496.46 69.9 463.9 69.9 463.9 38.19 452.15 38.19 452.15 113.38 463.9 113.38 463.9 81.61 496.46 81.61 496.46 113.38 508.25 113.38 508.25 38.19 496.46 38.19"/>
        <polygon class="cls-5" points="216.76 36.59 216.76 86.42 167.97 35.45 167.35 35.45 167.35 113.31 179.34 113.31 179.34 63.48 228.23 114.54 228.8 114.54 228.8 36.59 216.76 36.59"/>
        <polygon class="cls-5" points="318.74 36.78 295.88 88.51 273.13 36.78 260.38 36.78 295.51 114.78 296.31 114.78 331.59 36.78 318.74 36.78"/>
        <polygon class="cls-5" points="383.29 48.59 383.29 36.78 337.77 36.78 337.77 113.22 383.29 113.22 383.29 101.27 349.76 101.27 349.76 80.12 378.69 80.12 378.69 68.17 349.76 68.17 349.76 48.59 383.29 48.59"/>
        <path class="cls-5" d="M421.49,69.03c-9.29-3.98-16.35-6.12-16.35-12.1,0-5.4,5.59-9.77,12.61-9.77,5.55,0,10.81,2.9,13.18,8.06l8.92-6.16c-3.13-8.38-11.28-13.65-22.19-13.65-13.75,0-24.61,8.72-24.61,21.24s9.96,16.64,18.92,20.63c8.92,3.84,18.97,8.1,18.97,15.17,0,5.83-6.5,9.96-15.08,9.96-7.35,0-13.7-3.42-17.11-9.4l-9.49,6.79c4.37,8.81,13.9,14.69,26.47,14.69,15.51,0,27.26-8.72,27.26-22.28,0-12.04-9.38-17.87-21.48-23.18Z"/>
        <polygon class="cls-5" points="551.49 35.22 550.77 35.22 514.84 113.22 527.83 113.22 533.05 101.6 533.07 101.6 537.7 91.31 551.16 61.43 569.22 101.6 574.44 113.22 587.43 113.22 551.49 35.22"/>
        <polygon class="cls-5" points="644.91 36.78 644.91 48.68 665.39 48.68 665.39 113.22 677.44 113.22 677.44 48.68 697.93 48.68 697.93 36.78 644.91 36.78"/>
        <polygon class="cls-5" points="749.6 36.78 749.6 69.03 716.5 69.03 716.5 36.78 704.55 36.78 704.55 113.22 716.5 113.22 716.5 80.92 749.6 80.92 749.6 113.22 761.59 113.22 761.59 36.78 749.6 36.78"/>
        <polygon class="cls-5" points="804.39 35.22 803.68 35.22 767.75 113.22 780.73 113.22 785.96 101.6 785.97 101.6 790.61 91.31 790.6 91.31 804.07 61.43 822.12 101.6 827.34 113.22 840.34 113.22 804.39 35.22"/>
        <rect class="cls-5" x="241.84" y="36.8" width="12.04" height="77.96"/>
        <g id="Group_2" data-name="Group 2">
          <circle id="Ellipse_5" data-name="Ellipse 5" class="cls-4" cx="75" cy="75" r="75"/>
          <g id="Group_1" data-name="Group 1">
            <g>
              <path class="cls-1" d="M50.6,73.83c5.59-.01,11.21-.29,16.29-2.08,2.54-.9,4.94-2.22,7-4.11,2.06-1.89,3.73-4.34,4.84-7.3,1-2.64,1.48-5.37,1.47-8.05,0-4.61-1.4-9.07-3.95-12.82-2.54-3.75-6.24-6.79-10.8-8.5-2.34-.88-4.72-1.29-7.02-1.29-4.75,0-9.14,1.72-12.42,4.53-1.64,1.41-3.01,3.1-3.99,5.03-.97,1.92-1.54,4.09-1.54,6.34h7c0-1.1,.27-2.16,.79-3.19,.77-1.54,2.15-2.99,3.93-4.03,1.78-1.04,3.94-1.68,6.23-1.67,1.48,0,3,.26,4.55,.84,3.17,1.2,5.71,3.29,7.48,5.89,1.77,2.6,2.74,5.71,2.74,8.89,0,1.85-.33,3.73-1.02,5.58-.77,2.03-1.78,3.47-3.03,4.62-.94,.86-2.03,1.56-3.3,2.14-1.9,.87-4.2,1.44-6.8,1.77-2.6,.34-5.47,.44-8.46,.44v7h0Z"/>
              <path class="cls-1" d="M40.67,98.68c-.14,.88-.21,1.76-.21,2.62,0,2.71,.67,5.28,1.81,7.56,1.72,3.42,4.45,6.18,7.68,8.12,3.23,1.94,6.98,3.07,10.86,3.07,1.62,0,3.27-.2,4.89-.64,5.05-1.35,9.18-4.58,11.95-8.77,2.78-4.19,4.28-9.34,4.28-14.77,0-2.57-.34-5.21-1.04-7.83-.94-3.51-2.54-6.6-4.55-9.23-3.03-3.95-6.96-6.85-11.1-8.82-4.14-1.97-8.49-3.03-12.54-3.22l-.32,6.99c2.03,.09,4.27,.49,6.51,1.22,3.37,1.09,6.71,2.9,9.41,5.39,2.71,2.49,4.79,5.61,5.83,9.49,.55,2.04,.8,4.07,.8,6.02,0,4.14-1.16,7.96-3.11,10.89-1.97,2.94-4.66,5-7.93,5.88-1,.27-2.03,.4-3.08,.4-3.32,.01-6.79-1.35-9.3-3.56-1.26-1.1-2.28-2.39-2.97-3.77-.69-1.39-1.07-2.86-1.07-4.42,0-.5,.04-1.01,.12-1.53l-6.92-1.09h0Z"/>
              <path class="cls-1" d="M49.05,106.73c-1.1-2.36-1.55-4.47-1.55-6.27,0-1.51,.31-2.82,.86-3.98,.84-1.73,2.24-3.19,4.35-4.29,2.1-1.09,4.9-1.78,8.29-1.78h41.93v-7c-8.41,0-31.28,0-41.93,0-5.76,0-10.82,1.55-14.55,4.55-1.86,1.5-3.37,3.36-4.39,5.49-1.02,2.13-1.56,4.52-1.55,7.01,0,2.98,.74,6.09,2.2,9.22l6.35-2.95h0Z"/>
              <polyline class="cls-1" points="98.84 49.53 98.84 119.63 105.84 119.63 105.84 49.53"/>
              <polyline class="cls-1" points="90.65 49.92 114.02 49.92 114.02 42.92 90.65 42.92"/>
            </g>
          </g>
        </g>
        <g>
          <path id="_र" data-name="र" class="cls-3" d="M610.91,46.97c.77,3.97,.88,6.04,.83,9.09,0,3.83-.72,7.29-1.92,9.94-.39,.85-1.28,1.33-2.21,1.25-2.64-.21-5.51-.31-8.39-.31-3.89,0-6.22,.9-7.39,2.46-.93,1.12-1.42,2.52-1.4,3.95,0,2.68,2.06,5.18,7.79,11.09,9.96,10.39,20.76,22,29.85,31.53h0l6.3-9.54c-12.58-13.02-12.72-13.17-25.22-26.23-.22-.22-.15-.6,.13-.74,9.7-4.79,13.67-6.92,13.67-19.78,.05-4.2,.2-8.87,0-12.71"/>
          <polygon class="cls-2" points="636.83 48.94 584.58 48.94 584.43 36.78 636.83 36.78 636.83 48.94"/>
        </g>
      </g>
      <g>
        <path class="cls-5" d="M872.82,93.2h-8.17v19.99h-3.62v-19.99h-8.2v-3.26h19.99v3.26Z"/>
        <path class="cls-5" d="M898.77,89.94v23.25h-3.62v-17.01l-7.98,11.17-7.93-11.17v17.01h-3.63v-23.25h3.45l8.14,11.69,8.11-11.69h3.45Z"/>
      </g>
    </g>
  </g>
</svg>